<svg width="11" height="12" viewBox="0 0 11 12" fill="none" xmlns="http://www.w3.org/2000/svg">
<path d="M9.33333 10.5H1.16667V4.08333H9.33333M7.58333 0V1.16667H2.91667V0H1.75V1.16667H1.16667C0.519167 1.16667 0 1.68583 0 2.33333V10.5C0 10.8094 0.122916 11.1062 0.341709 11.325C0.560501 11.5437 0.857247 11.6667 1.16667 11.6667H9.33333C9.64275 11.6667 9.9395 11.5437 10.1583 11.325C10.3771 11.1062 10.5 10.8094 10.5 10.5V2.33333C10.5 2.02391 10.3771 1.72717 10.1583 1.50838C9.9395 1.28958 9.64275 1.16667 9.33333 1.16667H8.75V0M8.16667 6.41667H5.25V9.33333H8.16667V6.41667Z" fill="white"/>
</svg>
