<svg width="22" height="22" viewBox="0 0 22 22" fill="none" xmlns="http://www.w3.org/2000/svg">
<path d="M12.8778 5.07847C13.0633 5.03582 13.2576 5.05201 13.4335 5.12478C13.6094 5.19755 13.7583 5.32329 13.8595 5.48455L14.7707 6.9393C14.8442 7.05647 14.9432 7.1555 15.0604 7.22897L16.5151 8.14014C16.6767 8.24127 16.8028 8.39027 16.8757 8.5664C16.9487 8.74253 16.9649 8.93702 16.9221 9.1228L16.5371 10.7948C16.5061 10.9299 16.5061 11.0703 16.5371 11.2055L16.9221 12.8784C16.9645 13.0639 16.948 13.258 16.8751 13.4337C16.8022 13.6095 16.6764 13.7582 16.5151 13.8592L15.0604 14.7713C14.9432 14.8448 14.8442 14.9438 14.7707 15.061L13.8595 16.5157C13.7585 16.6771 13.6096 16.8031 13.4337 16.876C13.2577 16.949 13.0634 16.9653 12.8778 16.9227L11.2049 16.5377C11.07 16.5068 10.93 16.5068 10.7951 16.5377L9.12221 16.9227C8.93656 16.9653 8.74227 16.949 8.56633 16.876C8.39039 16.8031 8.24154 16.6771 8.14046 16.5157L7.22929 15.061C7.15556 14.9437 7.05621 14.8447 6.93871 14.7713L5.48487 13.8601C5.32345 13.7591 5.19752 13.6102 5.12458 13.4343C5.05164 13.2583 5.03532 13.064 5.07787 12.8784L5.46196 11.2055C5.49302 11.0703 5.49302 10.9299 5.46196 10.7948L5.07696 9.1228C5.03428 8.93693 5.05064 8.74237 5.12376 8.56623C5.19687 8.39009 5.32311 8.24114 5.48487 8.14014L6.93871 7.22897C7.05621 7.15561 7.15556 7.05657 7.22929 6.9393L8.14046 5.48455C8.24161 5.32347 8.39037 5.19784 8.56611 5.12508C8.74185 5.05232 8.93588 5.03603 9.12129 5.07847L10.7951 5.46255C10.93 5.49347 11.07 5.49347 11.2049 5.46255L12.8778 5.07847Z" stroke="black"/>
<path d="M8.72168 11.4914L10.5871 13.278L13.2775 8.72217" stroke="black" stroke-linecap="round" stroke-linejoin="round"/>
</svg>
