<svg width="10" height="10" viewBox="0 0 10 10" fill="none" xmlns="http://www.w3.org/2000/svg">
<path d="M4.99384 7.99167L2.57301 9.45C2.46607 9.51805 2.35426 9.54722 2.23759 9.5375C2.12093 9.52778 2.01884 9.48889 1.93134 9.42083C1.84384 9.35278 1.77579 9.26781 1.72718 9.16592C1.67857 9.06403 1.66884 8.94969 1.69801 8.82292L2.33968 6.06667L0.195928 4.21458C0.0987053 4.12708 0.0380387 4.02733 0.0139275 3.91533C-0.0101836 3.80333 -0.00298915 3.69406 0.0355108 3.5875C0.0740108 3.48094 0.132344 3.39344 0.210511 3.325C0.288677 3.25656 0.395622 3.21281 0.531344 3.19375L3.36051 2.94583L4.45426 0.35C4.50287 0.233333 4.57832 0.145833 4.68059 0.0874999C4.78287 0.0291666 4.88729 0 4.99384 0C5.1004 0 5.20482 0.0291666 5.30709 0.0874999C5.40937 0.145833 5.48482 0.233333 5.53343 0.35L6.62718 2.94583L9.45634 3.19375C9.59245 3.21319 9.6994 3.25694 9.77718 3.325C9.85495 3.39306 9.91329 3.48056 9.95218 3.5875C9.99107 3.69444 9.99845 3.80392 9.97434 3.91592C9.95023 4.02792 9.88937 4.12747 9.79176 4.21458L7.64801 6.06667L8.28968 8.82292C8.31884 8.94931 8.30912 9.06364 8.26051 9.16592C8.2119 9.26819 8.14384 9.35317 8.05634 9.42083C7.96884 9.4885 7.86676 9.52739 7.75009 9.5375C7.63343 9.54761 7.52162 9.51844 7.41468 9.45L4.99384 7.99167Z" fill="white"/>
</svg>
