<svg width="32" height="32" viewBox="0 0 32 32" fill="none" xmlns="http://www.w3.org/2000/svg">
<path d="M4.2666 22.5996C4.2666 22.3344 4.37196 22.08 4.5595 21.8925C4.74703 21.705 5.00139 21.5996 5.2666 21.5996H11.2666C11.5318 21.5996 11.7862 21.705 11.9737 21.8925C12.1612 22.08 12.2666 22.3344 12.2666 22.5996C12.2666 22.8648 12.1612 23.1192 11.9737 23.3067C11.7862 23.4943 11.5318 23.5996 11.2666 23.5996H5.2666C5.00139 23.5996 4.74703 23.4943 4.5595 23.3067C4.37196 23.1192 4.2666 22.8648 4.2666 22.5996ZM4.2666 16.5996C4.2666 16.3344 4.37196 16.08 4.5595 15.8925C4.74703 15.705 5.00139 15.5996 5.2666 15.5996H19.2666C19.5318 15.5996 19.7862 15.705 19.9737 15.8925C20.1612 16.08 20.2666 16.3344 20.2666 16.5996C20.2666 16.8648 20.1612 17.1192 19.9737 17.3067C19.7862 17.4943 19.5318 17.5996 19.2666 17.5996H5.2666C5.00139 17.5996 4.74703 17.4943 4.5595 17.3067C4.37196 17.1192 4.2666 16.8648 4.2666 16.5996ZM4.2666 10.5996C4.2666 10.3344 4.37196 10.08 4.5595 9.8925C4.74703 9.70497 5.00139 9.59961 5.2666 9.59961H27.2666C27.5318 9.59961 27.7862 9.70497 27.9737 9.8925C28.1612 10.08 28.2666 10.3344 28.2666 10.5996C28.2666 10.8648 28.1612 11.1192 27.9737 11.3067C27.7862 11.4943 27.5318 11.5996 27.2666 11.5996H5.2666C5.00139 11.5996 4.74703 11.4943 4.5595 11.3067C4.37196 11.1192 4.2666 10.8648 4.2666 10.5996Z" fill="black"/>
</svg>
