<svg width="24" height="24" viewBox="0 0 24 24" fill="none" xmlns="http://www.w3.org/2000/svg">
<path d="M8.50041 16.5864L4.70741 12.7934C4.5188 12.6112 4.2662 12.5105 4.00401 12.5127C3.74181 12.515 3.491 12.6202 3.30559 12.8056C3.12018 12.991 3.01501 13.2418 3.01273 13.504C3.01045 13.7662 3.11125 14.0188 3.29341 14.2074L7.79341 18.7074C7.98094 18.8949 8.23524 19.0002 8.50041 19.0002C8.76557 19.0002 9.01988 18.8949 9.20741 18.7074L20.2074 7.70741C20.3896 7.5188 20.4904 7.2662 20.4881 7.00401C20.4858 6.74181 20.3806 6.491 20.1952 6.30559C20.0098 6.12018 19.759 6.01501 19.4968 6.01273C19.2346 6.01045 18.982 6.11125 18.7934 6.29341L8.50041 16.5864Z" fill="black"/>
</svg>
