<svg width="30" height="30" viewBox="0 0 30 30" fill="none" xmlns="http://www.w3.org/2000/svg">
<path d="M3.75 19.6875V10.3125C3.75 9.64946 4.01339 9.01357 4.48223 8.54473C4.95107 8.07589 5.58696 7.8125 6.25 7.8125H16.875C17.538 7.8125 18.1739 8.07589 18.6428 8.54473C19.1116 9.01357 19.375 9.64946 19.375 10.3125V19.6875C19.375 20.3505 19.1116 20.9864 18.6428 21.4553C18.1739 21.9241 17.538 22.1875 16.875 22.1875H6.25C5.58696 22.1875 4.95107 21.9241 4.48223 21.4553C4.01339 20.9864 3.75 20.3505 3.75 19.6875ZM25.21 8.73875L20.21 13.1925C20.1441 13.251 20.0913 13.3228 20.0551 13.4032C20.0189 13.4835 20.0002 13.5706 20 13.6588V15.8813C20.0002 15.9694 20.0189 16.0565 20.0551 16.1368C20.0913 16.2172 20.1441 16.289 20.21 16.3475L25.21 20.8013C25.3001 20.8812 25.4114 20.9335 25.5305 20.9517C25.6495 20.9699 25.7714 20.9534 25.8812 20.904C25.9911 20.8546 26.0844 20.7745 26.1498 20.6733C26.2152 20.5721 26.25 20.4542 26.25 20.3338V9.20625C26.25 9.08577 26.2152 8.96786 26.1498 8.86669C26.0844 8.76553 25.9911 8.68542 25.8812 8.63603C25.7714 8.58663 25.6495 8.57005 25.5305 8.58827C25.4114 8.6065 25.3001 8.65875 25.21 8.73875Z" stroke="black" stroke-width="1.5" stroke-linecap="round" stroke-linejoin="round"/>
</svg>
