<svg width="24" height="24" viewBox="0 0 24 24" fill="none" xmlns="http://www.w3.org/2000/svg">
<path d="M7.00042 12H17.0004M9.00042 8H15.0004M10.0004 16H14.0004M16.2684 3H7.73242C7.47375 3.00117 7.22004 3.07105 6.99724 3.20248C6.77445 3.33391 6.59057 3.52217 6.46442 3.748L2.19642 11.257C2.0683 11.4837 2.00098 11.7396 2.00098 12C2.00098 12.2604 2.0683 12.5163 2.19642 12.743L6.46442 20.252C6.72442 20.714 7.20842 20.999 7.73242 21H16.2684C16.5271 20.9988 16.7808 20.9289 17.0036 20.7975C17.2264 20.6661 17.4103 20.4778 17.5364 20.252L21.8044 12.743C21.9325 12.5163 21.9999 12.2604 21.9999 12C21.9999 11.7396 21.9325 11.4837 21.8044 11.257L17.5364 3.748C17.4103 3.52217 17.2264 3.33391 17.0036 3.20248C16.7808 3.07105 16.5271 3.00117 16.2684 3Z" stroke="black" stroke-width="1.5" stroke-linecap="round" stroke-linejoin="round"/>
</svg>
