<svg width="24" height="24" viewBox="0 0 24 24" fill="none" xmlns="http://www.w3.org/2000/svg">
<path d="M9.64164 3.59961C8.94039 3.59961 8.28414 3.95211 7.89414 4.53336L6.91914 5.99961H4.80039C3.47664 5.99961 2.40039 7.07586 2.40039 8.39961V17.9996C2.40039 19.3234 3.47664 20.3996 4.80039 20.3996H19.2004C20.5241 20.3996 21.6004 19.3234 21.6004 17.9996V8.39961C21.6004 7.07586 20.5241 5.99961 19.2004 5.99961H17.0816L16.1066 4.53336C15.7166 3.95211 15.0604 3.59961 14.3591 3.59961H9.64164ZM9.39039 5.53461C9.44664 5.45211 9.54039 5.39961 9.64164 5.39961H14.3554C14.4566 5.39961 14.5504 5.44836 14.6066 5.53461L15.8516 7.40211C16.0204 7.65336 16.2979 7.80336 16.6016 7.80336H19.2004C19.5304 7.80336 19.8004 8.07336 19.8004 8.40336V18.0034C19.8004 18.3334 19.5304 18.6034 19.2004 18.6034L4.80039 18.5996C4.47039 18.5996 4.20039 18.3296 4.20039 17.9996V8.39961C4.20039 8.06961 4.47039 7.79961 4.80039 7.79961H7.39914C7.69914 7.79961 7.98039 7.64961 8.14914 7.39836L9.39414 5.53086L9.39039 5.53461ZM12.0004 16.7996C14.3216 16.7996 16.2004 14.9209 16.2004 12.5996C16.2004 10.2784 14.3216 8.39961 12.0004 8.39961C9.67914 8.39961 7.80039 10.2784 7.80039 12.5996C7.80039 14.9209 9.67914 16.7996 12.0004 16.7996ZM9.60039 12.5996C9.60039 11.2759 10.6766 10.1996 12.0004 10.1996C13.3241 10.1996 14.4004 11.2759 14.4004 12.5996C14.4004 13.9234 13.3241 14.9996 12.0004 14.9996C10.6766 14.9996 9.60039 13.9234 9.60039 12.5996Z" fill="black"/>
</svg>
