<svg width="12" height="12" viewBox="0 0 12 12" fill="none" xmlns="http://www.w3.org/2000/svg">
<g clip-path="url(#clip0_491_89932)">
<path d="M5.50872 1.40722C5.53014 1.29252 5.59101 1.18893 5.68077 1.11438C5.77053 1.03983 5.88354 0.999023 6.00022 0.999023C6.1169 0.999023 6.22991 1.03983 6.31967 1.11438C6.40943 1.18893 6.4703 1.29252 6.49172 1.40722L7.01722 4.18622C7.05454 4.38379 7.15056 4.56553 7.29274 4.70771C7.43491 4.84988 7.61665 4.9459 7.81422 4.98322L10.5932 5.50872C10.7079 5.53014 10.8115 5.59101 10.8861 5.68077C10.9606 5.77053 11.0014 5.88354 11.0014 6.00022C11.0014 6.1169 10.9606 6.22991 10.8861 6.31967C10.8115 6.40943 10.7079 6.4703 10.5932 6.49172L7.81422 7.01722C7.61665 7.05454 7.43491 7.15056 7.29274 7.29274C7.15056 7.43491 7.05454 7.61665 7.01722 7.81422L6.49172 10.5932C6.4703 10.7079 6.40943 10.8115 6.31967 10.8861C6.22991 10.9606 6.1169 11.0014 6.00022 11.0014C5.88354 11.0014 5.77053 10.9606 5.68077 10.8861C5.59101 10.8115 5.53014 10.7079 5.50872 10.5932L4.98322 7.81422C4.9459 7.61665 4.84988 7.43491 4.70771 7.29274C4.56553 7.15056 4.38379 7.05454 4.18622 7.01722L1.40722 6.49172C1.29252 6.4703 1.18893 6.40943 1.11438 6.31967C1.03983 6.22991 0.999023 6.1169 0.999023 6.00022C0.999023 5.88354 1.03983 5.77053 1.11438 5.68077C1.18893 5.59101 1.29252 5.53014 1.40722 5.50872L4.18622 4.98322C4.38379 4.9459 4.56553 4.84988 4.70771 4.70771C4.84988 4.56553 4.9459 4.38379 4.98322 4.18622L5.50872 1.40722Z" stroke="#FDC700" stroke-width="1.25" stroke-linecap="round" stroke-linejoin="round"/>
</g>
<defs>
<clipPath id="clip0_491_89932">
<rect width="12" height="12" fill="white"/>
</clipPath>
</defs>
</svg>
