<svg width="13" height="13" viewBox="0 0 13 13" fill="none" xmlns="http://www.w3.org/2000/svg">
<path fill-rule="evenodd" clip-rule="evenodd" d="M6.49967 11.9163C3.50805 11.9163 1.08301 9.4913 1.08301 6.49967C1.08301 3.50805 3.50805 1.08301 6.49967 1.08301C9.4913 1.08301 11.9163 3.50805 11.9163 6.49967C11.9163 9.4913 9.4913 11.9163 6.49967 11.9163ZM6.49967 11.2663C7.76387 11.2663 8.97629 10.7641 9.87022 9.87022C10.7641 8.97629 11.2663 7.76387 11.2663 6.49967C11.2663 5.23548 10.7641 4.02306 9.87022 3.12913C8.97629 2.23521 7.76387 1.73301 6.49967 1.73301C5.23548 1.73301 4.02306 2.23521 3.12913 3.12913C2.23521 4.02306 1.73301 5.23548 1.73301 6.49967C1.73301 7.76387 2.23521 8.97629 3.12913 9.87022C4.02306 10.7641 5.23548 11.2663 6.49967 11.2663ZM6.17467 5.41634H6.82467V9.20801H6.17467V5.41634ZM6.49967 4.87467C6.35602 4.87467 6.21824 4.81761 6.11666 4.71602C6.01508 4.61444 5.95801 4.47667 5.95801 4.33301C5.95801 4.18935 6.01508 4.05157 6.11666 3.94999C6.21824 3.84841 6.35602 3.79134 6.49967 3.79134C6.64333 3.79134 6.78111 3.84841 6.88269 3.94999C6.98427 4.05157 7.04134 4.18935 7.04134 4.33301C7.04134 4.47667 6.98427 4.61444 6.88269 4.71602C6.78111 4.81761 6.64333 4.87467 6.49967 4.87467Z" fill="#575656"/>
</svg>
