<svg width="22" height="22" viewBox="0 0 22 22" fill="none" xmlns="http://www.w3.org/2000/svg">
<path d="M12.8778 5.07798C13.0633 5.03533 13.2576 5.05152 13.4335 5.12429C13.6094 5.19706 13.7583 5.32281 13.8595 5.48406L14.7707 6.93881C14.8442 7.05598 14.9432 7.15501 15.0604 7.22848L16.5151 8.13965C16.6767 8.24078 16.8028 8.38979 16.8757 8.56592C16.9487 8.74204 16.9649 8.93653 16.9221 9.12231L16.5371 10.7943C16.5061 10.9294 16.5061 11.0699 16.5371 11.205L16.9221 12.8779C16.9645 13.0634 16.948 13.2575 16.8751 13.4333C16.8022 13.609 16.6764 13.7577 16.5151 13.8587L15.0604 14.7708C14.9432 14.8443 14.8442 14.9433 14.7707 15.0605L13.8595 16.5152C13.7585 16.6767 13.6096 16.8026 13.4337 16.8755C13.2577 16.9485 13.0634 16.9648 12.8778 16.9222L11.2049 16.5372C11.07 16.5063 10.93 16.5063 10.7951 16.5372L9.12221 16.9222C8.93656 16.9648 8.74227 16.9485 8.56633 16.8755C8.39039 16.8026 8.24154 16.6767 8.14046 16.5152L7.22929 15.0605C7.15556 14.9432 7.05621 14.8442 6.93871 14.7708L5.48487 13.8596C5.32345 13.7586 5.19752 13.6097 5.12458 13.4338C5.05164 13.2578 5.03532 13.0635 5.07787 12.8779L5.46196 11.205C5.49302 11.0699 5.49302 10.9294 5.46196 10.7943L5.07696 9.12231C5.03428 8.93644 5.05064 8.74188 5.12376 8.56574C5.19687 8.3896 5.32311 8.24066 5.48487 8.13965L6.93871 7.22848C7.05621 7.15512 7.15556 7.05609 7.22929 6.93881L8.14046 5.48406C8.24161 5.32298 8.39037 5.19735 8.56611 5.12459C8.74185 5.05183 8.93588 5.03554 9.12129 5.07798L10.7951 5.46206C10.93 5.49298 11.07 5.49298 11.2049 5.46206L12.8778 5.07798Z" stroke="black"/>
<path d="M8.72168 11.4909L10.5871 13.2775L13.2775 8.72168" stroke="black" stroke-linecap="round" stroke-linejoin="round"/>
</svg>
