<svg width="24" height="24" viewBox="0 0 24 24" fill="none" xmlns="http://www.w3.org/2000/svg">
<path d="M10.9882 11.7981V12.5791C11.0045 13.0853 10.8832 13.5864 10.6372 14.0291C10.4054 14.4275 10.0638 14.7507 9.65324 14.9601C9.21324 15.1841 8.72324 15.2961 8.23024 15.2851C7.67745 15.2968 7.13159 15.1604 6.64925 14.8901C6.19489 14.6234 5.82851 14.2295 5.59524 13.7571C5.32558 13.2115 5.19276 12.6085 5.20825 12.0001C5.20225 11.5271 5.27824 11.0571 5.43624 10.6121C5.57279 10.2288 5.78847 9.87857 6.06924 9.5841C6.33824 9.3011 6.66425 9.0801 7.02625 8.9341C7.40025 8.7841 7.80125 8.7091 8.20425 8.7141C8.54725 8.7121 8.88824 8.7651 9.21424 8.8731C9.51124 8.9731 9.79024 9.1211 10.0392 9.3121C10.2792 9.5021 10.4822 9.7341 10.6372 9.9971C10.7922 10.2671 10.8932 10.5671 10.9352 10.8751H9.55725C9.52058 10.732 9.46152 10.5957 9.38225 10.4711C9.3054 10.3542 9.20698 10.2531 9.09225 10.1731C8.97607 10.0855 8.84494 10.0198 8.70525 9.9791C8.54674 9.94445 8.38409 9.93266 8.22225 9.9441C7.91225 9.9341 7.60724 10.0171 7.34424 10.1811C7.08882 10.358 6.89042 10.6054 6.77324 10.8931C6.62324 11.2511 6.55024 11.6381 6.56224 12.0261C6.55424 12.4141 6.62225 12.7991 6.76425 13.1591C6.88725 13.4461 7.08824 13.6921 7.34424 13.8711C7.60424 14.0411 7.91125 14.1271 8.22225 14.1171C8.49225 14.1251 8.76124 14.0671 9.00424 13.9501C9.22477 13.8453 9.40619 13.6729 9.52225 13.4581C9.63025 13.2521 9.68725 13.0231 9.68925 12.7901H8.28325V11.7981H10.9882ZM13.4502 8.9161V15.1271C13.4497 15.1501 13.4405 15.1721 13.4243 15.1884C13.4081 15.2048 13.3862 15.2143 13.3632 15.2151H12.1862C12.1744 15.2164 12.1624 15.2149 12.1511 15.211C12.1399 15.207 12.1297 15.2005 12.1212 15.1921C12.1128 15.1837 12.1064 15.1735 12.1024 15.1622C12.0984 15.151 12.097 15.139 12.0982 15.1271V8.9171C12.0961 8.89902 12.1002 8.88074 12.1098 8.86528C12.1194 8.84982 12.1341 8.83812 12.1512 8.8321C12.1626 8.82904 12.1745 8.82803 12.1862 8.8291H13.3632C13.3863 8.8296 13.4082 8.8389 13.4246 8.85508C13.4409 8.87126 13.4505 8.8931 13.4512 8.9161M14.5592 15.1271V8.9171C14.5598 8.89392 14.5692 8.87184 14.5856 8.85544C14.602 8.83905 14.6241 8.82961 14.6472 8.8291H18.7932V9.9441H16.0352C16.0121 9.94461 15.99 9.95405 15.9736 9.97044C15.9572 9.98683 15.9478 10.0089 15.9472 10.0321V11.3761C15.9498 11.3986 15.9599 11.4195 15.9759 11.4355C15.9919 11.4514 16.0128 11.4615 16.0352 11.4641H18.5472V12.5791H16.0352C16.0121 12.5796 15.99 12.589 15.9736 12.6054C15.9572 12.6218 15.9478 12.6439 15.9472 12.6671V15.1271C15.9485 15.139 15.9471 15.151 15.9431 15.1622C15.9391 15.1735 15.9327 15.1837 15.9243 15.1921C15.9158 15.2006 15.9056 15.207 15.8944 15.211C15.8831 15.215 15.8711 15.2164 15.8592 15.2151H14.6822C14.6682 15.2211 14.6528 15.2235 14.6376 15.2219C14.6224 15.2203 14.6078 15.2149 14.5952 15.2061C14.5831 15.197 14.5734 15.185 14.5671 15.1712C14.5608 15.1574 14.5581 15.1422 14.5592 15.1271Z" fill="black"/>
<path d="M16.625 3.75H7.375C4.821 3.75 2.75 5.802 2.75 8.333V15.667C2.75 18.198 4.82 20.25 7.375 20.25H16.625C19.179 20.25 21.25 18.198 21.25 15.667V8.333C21.25 5.802 19.18 3.75 16.625 3.75Z" stroke="black" stroke-width="1.5" stroke-linecap="round" stroke-linejoin="round"/>
</svg>
