<svg width="24" height="24" viewBox="0 0 24 24" fill="none" xmlns="http://www.w3.org/2000/svg">
<path d="M12 3.74962C12.4804 3.7374 12.9462 3.91461 13.2971 4.24297C13.6479 4.57133 13.8555 5.0245 13.875 5.50462C13.8672 5.74301 13.8126 5.97753 13.7141 6.19478C13.6157 6.41203 13.4754 6.60775 13.3013 6.77074C13.1271 6.93373 12.9226 7.0608 12.6993 7.14469C12.476 7.22857 12.2384 7.26763 12 7.25962C11.7616 7.26763 11.524 7.22857 11.3007 7.14469C11.0774 7.0608 10.8729 6.93373 10.6987 6.77074C10.5246 6.60775 10.3843 6.41203 10.2859 6.19478C10.1874 5.97753 10.1328 5.74301 10.125 5.50462C10.1445 5.0245 10.3521 4.57133 10.7029 4.24297C11.0538 3.91461 11.5196 3.7374 12 3.74962ZM12 16.7396C12.341 16.763 12.6678 16.8854 12.9402 17.0919C13.2126 17.2984 13.4188 17.58 13.5334 17.902C13.648 18.224 13.6661 18.5725 13.5854 18.9047C13.5048 19.2368 13.3288 19.5382 13.0793 19.7718C12.8297 20.0054 12.5174 20.161 12.1806 20.2196C11.8439 20.2781 11.4973 20.2371 11.1836 20.1014C10.8698 19.9658 10.6025 19.7415 10.4145 19.456C10.2264 19.1706 10.1258 18.8364 10.125 18.4946C10.1328 18.2562 10.1874 18.0217 10.2859 17.8044C10.3843 17.5872 10.5246 17.3915 10.6987 17.2285C10.8729 17.0655 11.0774 16.9384 11.3007 16.8545C11.524 16.7707 11.7616 16.7316 12 16.7396ZM12 10.2446C12.4655 10.2446 12.9118 10.4295 13.241 10.7586C13.5701 11.0878 13.755 11.5342 13.755 11.9996C13.755 12.4651 13.5701 12.9115 13.241 13.2406C12.9118 13.5697 12.4655 13.7546 12 13.7546C11.5345 13.7546 11.0882 13.5697 10.759 13.2406C10.4299 12.9115 10.245 12.4651 10.245 11.9996C10.245 11.5342 10.4299 11.0878 10.759 10.7586C11.0882 10.4295 11.5345 10.2446 12 10.2446Z" fill="black"/>
</svg>
