<svg width="16" height="16" viewBox="0 0 16 16" fill="none" xmlns="http://www.w3.org/2000/svg">
<path d="M1.29128 0.0966447C0.583928 -0.256834 -0.19903 0.418061 0.0459907 1.16975L1.63487 6.04048C1.6798 6.17808 1.76161 6.30073 1.87139 6.39509C1.98117 6.48944 2.11472 6.55189 2.25751 6.57564L8.53543 7.62183C8.86595 7.67725 8.86595 8.15225 8.53543 8.20767L2.25791 9.25385C2.11511 9.27761 1.98157 9.34006 1.87179 9.43441C1.76201 9.52877 1.6802 9.65141 1.63526 9.78902L0.0459907 14.6625C-0.199426 15.4146 0.583928 16.0895 1.29128 15.736L15.341 8.71314C15.9977 8.3846 15.9977 7.44766 15.341 7.11952L1.29128 0.0966447Z" fill="#DCDCDC"/>
</svg>
