<svg width="12" height="11" viewBox="0 0 12 11" fill="none" xmlns="http://www.w3.org/2000/svg">
<path d="M8.58662e-07 4.37403C0.000211042 3.42953 0.306071 2.51046 0.871866 1.75418C1.43766 0.99791 2.23301 0.445043 3.13903 0.178215C4.04506 -0.0886122 5.0131 -0.0550706 5.89848 0.273827C6.78387 0.602725 7.53904 1.20932 8.05113 2.00294C8.56323 2.79656 8.80474 3.7346 8.73958 4.67684C8.67441 5.61909 8.30607 6.51495 7.68961 7.23052C7.07314 7.9461 6.24166 8.44296 5.31943 8.64685C4.3972 8.85074 3.43375 8.7507 2.57308 8.36169C1.83925 8.53086 1.04883 8.67669 0.685418 8.74203C0.592543 8.75862 0.497023 8.75235 0.407115 8.72375C0.317208 8.69516 0.235616 8.6451 0.169394 8.5779C0.103171 8.5107 0.054309 8.42838 0.0270314 8.33807C-0.000246215 8.24775 -0.00511899 8.15215 0.0128342 8.05953C0.0816676 7.70369 0.234501 6.94069 0.410084 6.22611C0.139585 5.64617 -0.00040004 5.01395 8.58662e-07 4.37403ZM2.53225 3.11461C2.42246 3.22485 2.33547 3.35565 2.27625 3.49952C2.21703 3.6434 2.18674 3.79754 2.18712 3.95312C2.1875 4.10871 2.21854 4.2627 2.27846 4.40628C2.33838 4.54987 2.42601 4.68024 2.53633 4.78994L4.25308 6.50669C4.32425 6.57786 4.43975 6.57786 4.51092 6.50669L6.21833 4.79986C6.43964 4.57719 6.56346 4.27575 6.56259 3.96181C6.56171 3.64787 6.43621 3.34713 6.21367 3.12569C6.10396 3.01498 5.97347 2.92701 5.82969 2.86683C5.68591 2.80665 5.53167 2.77545 5.3758 2.77502C5.21994 2.77459 5.06552 2.80493 4.92141 2.8643C4.7773 2.92368 4.64632 3.01092 4.536 3.12103L4.37267 3.28436L4.20758 3.11869C4.09788 3.00836 3.96751 2.92074 3.82392 2.86082C3.68034 2.8009 3.52635 2.76986 3.37076 2.76948C3.21518 2.7691 3.06104 2.79939 2.91716 2.85861C2.77329 2.91783 2.64249 3.00482 2.53225 3.11461ZM7.32725 10.4996C6.17867 10.4996 5.13392 10.0563 4.35225 9.33236H4.41058C4.83 9.33236 5.23658 9.28044 5.62508 9.18303C6.12908 9.46419 6.71008 9.62403 7.32784 9.62403C7.88784 9.62403 8.41634 9.49278 8.88533 9.25944L9.02709 9.18886L9.18109 9.22561C9.71892 9.35394 10.3279 9.48578 10.7794 9.58144C10.6773 9.14336 10.5379 8.55711 10.4049 8.03503L10.3641 7.87403L10.4399 7.72644C10.695 7.23081 10.828 6.68143 10.8278 6.12403C10.8279 5.53891 10.6812 4.96313 10.4013 4.44932C10.1214 3.93552 9.71707 3.50009 9.22542 3.18286C9.12283 2.76611 8.96593 2.36465 8.75875 1.98878C9.33784 2.1893 9.86837 2.5092 10.316 2.92776C10.7636 3.34633 11.1183 3.85423 11.3572 4.41859C11.5961 4.98294 11.7138 5.59117 11.7027 6.2039C11.6916 6.81663 11.5519 7.4202 11.2928 7.97553C11.4403 8.56353 11.5897 9.20053 11.6842 9.61061C11.7119 9.72941 11.7092 9.85329 11.6763 9.97078C11.6435 10.0883 11.5816 10.1956 11.4963 10.2828C11.411 10.37 11.3051 10.4343 11.1883 10.4698C11.0716 10.5052 10.9478 10.5107 10.8284 10.4856C10.2606 10.3675 9.69417 10.2431 9.12917 10.1123C8.56298 10.3676 7.94893 10.4994 7.32784 10.499" fill="white"/>
</svg>
