<svg width="14" height="20" viewBox="0 0 14 20" fill="none" xmlns="http://www.w3.org/2000/svg">
<path d="M3.98497 12.4622H0.984971C0.597874 12.4622 0.311422 12.289 0.125616 11.9425C-0.0601907 11.5961 -0.0398684 11.2613 0.186583 10.938L7.42045 0.534799C7.58174 0.308993 7.79142 0.151896 8.04949 0.0635089C8.30755 -0.0248782 8.57368 -0.0210072 8.84787 0.0751219C9.12207 0.171251 9.32368 0.340606 9.45271 0.583186C9.58174 0.825767 9.63013 1.08383 9.59787 1.35738L8.82368 7.62351H12.5737C12.993 7.62351 13.2876 7.80899 13.4572 8.17996C13.6269 8.55093 13.5743 8.8977 13.2995 9.22028L5.33981 18.7525C5.16239 18.9622 4.94465 19.0993 4.68658 19.1638C4.42852 19.2283 4.17852 19.2042 3.93658 19.0913C3.69465 18.9783 3.50529 18.8051 3.36852 18.5716C3.23174 18.338 3.17916 18.0838 3.21078 17.809L3.98497 12.4622Z" fill="black"/>
</svg>
