<svg width="19" height="19" viewBox="0 0 19 19" fill="none" xmlns="http://www.w3.org/2000/svg">
<path d="M6.71201 3.59C7.76784 1.69667 8.29534 0.75 9.08451 0.75C9.87367 0.75 10.4012 1.69667 11.457 3.59L11.7303 4.08C12.0303 4.61833 12.1803 4.8875 12.4137 5.065C12.647 5.2425 12.9387 5.30833 13.522 5.44L14.052 5.56C16.102 6.02417 17.1262 6.25583 17.3703 7.04C17.6137 7.82333 16.9153 8.64083 15.5178 10.275L15.1562 10.6975C14.7595 11.1617 14.5603 11.3942 14.4712 11.6808C14.382 11.9683 14.412 12.2783 14.472 12.8975L14.527 13.4617C14.7378 15.6425 14.8437 16.7325 14.2053 17.2167C13.567 17.7008 12.607 17.2592 10.6887 16.3758L10.1912 16.1475C9.64617 15.8958 9.37367 15.7708 9.08451 15.7708C8.79534 15.7708 8.52284 15.8958 7.97784 16.1475L7.48117 16.3758C5.56201 17.2592 4.60201 17.7008 3.96451 17.2175C3.32534 16.7325 3.43117 15.6425 3.64201 13.4617L3.69701 12.8983C3.75701 12.2783 3.78701 11.9683 3.69701 11.6817C3.60867 11.3942 3.40951 11.1617 3.01284 10.6983L2.65117 10.275C1.25367 8.64167 0.555339 7.82417 0.798672 7.04C1.04201 6.25583 2.06784 6.02333 4.11784 5.56L4.64784 5.44C5.23034 5.30833 5.52117 5.2425 5.75534 5.065C5.98951 4.8875 6.13867 4.61833 6.43867 4.08L6.71201 3.59Z" stroke="black" stroke-width="1.5"/>
</svg>
