<svg width="22" height="20" viewBox="0 0 22 20" fill="none" xmlns="http://www.w3.org/2000/svg">
<path d="M20.7901 10.5587C18.0818 16.4195 11.4518 19.442 11.1701 19.572C10.9542 19.6566 10.7143 19.6566 10.4984 19.572C10.2276 19.442 3.58677 16.4195 0.878437 10.5587C-0.80073 6.90787 0.130937 2.97537 1.96177 1.28537C2.60306 0.735818 3.36554 0.346185 4.18661 0.148449C5.00768 -0.0492859 5.86394 -0.0494857 6.6851 0.147866C8.36535 0.529813 9.83274 1.54689 10.7801 2.9862C11.7292 1.5438 13.2012 0.526199 14.8859 0.147866C15.7071 -0.0494857 16.5634 -0.0492859 17.3844 0.148449C18.2055 0.346185 18.968 0.735818 19.6093 1.28537C21.5376 2.97537 22.4801 6.90787 20.7901 10.5587Z" fill="black"/>
</svg>
