<svg width="9" height="12" viewBox="0 0 9 12" fill="none" xmlns="http://www.w3.org/2000/svg">
<mask id="mask0_491_89967" style="mask-type:luminance" maskUnits="userSpaceOnUse" x="0" y="0" width="9" height="12">
<path fill-rule="evenodd" clip-rule="evenodd" d="M4.375 0C1.95883 0 0 2.00433 0 4.4765C0 5.80242 0.5635 6.99358 1.45775 7.81317C1.75525 8.08558 1.97633 8.288 2.13267 8.435C2.21185 8.50938 2.28964 8.58523 2.366 8.6625L2.38525 8.6835C2.5235 8.8585 2.55325 8.90283 2.57075 8.94367C2.58825 8.9845 2.60167 9.037 2.63608 9.25867C2.65008 9.34617 2.65125 9.4955 2.65125 9.90325V9.92075C2.65125 10.1593 2.65125 10.3653 2.66642 10.5338C2.68217 10.7123 2.71717 10.8897 2.81108 11.0559C2.91608 11.242 3.06658 11.396 3.24858 11.5033C3.41075 11.5996 3.584 11.6352 3.75842 11.6515C3.9235 11.6667 4.12475 11.6667 4.35808 11.6667H4.39192C4.62525 11.6667 4.8265 11.6667 4.99158 11.6515C5.16658 11.6352 5.33867 11.599 5.502 11.5033C5.6844 11.3952 5.83509 11.2408 5.93892 11.0559C6.03225 10.8897 6.06725 10.7129 6.08358 10.5338C6.09875 10.3647 6.09875 10.1593 6.09817 9.92075V9.90325C6.09817 9.4955 6.09992 9.34617 6.11333 9.25867C6.14833 9.037 6.16117 8.9845 6.17925 8.94367C6.19675 8.90283 6.2265 8.85792 6.36475 8.6835L6.3665 8.68175L6.36942 8.67825L6.384 8.6625L6.43533 8.61C6.47889 8.56606 6.53956 8.50772 6.61733 8.435C6.77367 8.288 6.99475 8.08558 7.29225 7.81258C7.75349 7.38816 8.12131 6.87235 8.37228 6.29799C8.62326 5.72362 8.75189 5.1033 8.75 4.4765C8.75 2.00433 6.79117 0 4.375 0ZM5.29083 10.4603C5.29511 10.4164 5.29803 10.3662 5.29958 10.3098H3.45042C3.45197 10.3662 3.45469 10.4164 3.45858 10.4603C3.46967 10.5828 3.48775 10.6272 3.5 10.6493C3.53493 10.7107 3.58518 10.7619 3.64583 10.7981C3.66742 10.8109 3.71058 10.8296 3.83017 10.8407C3.955 10.8523 4.12008 10.8523 4.375 10.8523C4.62992 10.8523 4.795 10.8523 4.91983 10.8407C5.03942 10.8296 5.08258 10.8115 5.10417 10.7981C5.16482 10.7619 5.21507 10.7107 5.25 10.6493C5.26225 10.6272 5.28033 10.5828 5.29083 10.4603Z" fill="white"/>
<path fill-rule="evenodd" clip-rule="evenodd" d="M3.07607 6.62131C3.12582 6.59253 3.18075 6.57383 3.23773 6.56629C3.29471 6.55874 3.35262 6.5625 3.40814 6.57734C3.46367 6.59218 3.51573 6.61782 3.56134 6.65279C3.60695 6.68776 3.64523 6.73138 3.67398 6.78114C3.73794 6.89212 3.83001 6.98429 3.94091 7.04837C4.05182 7.11246 4.17765 7.1462 4.30573 7.1462C4.43382 7.1462 4.55965 7.11246 4.67055 7.04837C4.78146 6.98429 4.87352 6.89212 4.93748 6.78114C4.96629 6.73143 5.0046 6.68787 5.05024 6.65296C5.09587 6.61805 5.14794 6.59247 5.20346 6.57769C5.25898 6.5629 5.31687 6.55919 5.37383 6.56678C5.43078 6.57436 5.48568 6.59309 5.5354 6.62189C5.58512 6.6507 5.62867 6.68901 5.66358 6.73465C5.69849 6.78028 5.72407 6.83235 5.73886 6.88787C5.75364 6.94339 5.75735 7.00128 5.74977 7.05824C5.74218 7.11519 5.72345 7.1701 5.69465 7.21981C5.48545 7.58068 5.14437 7.84627 4.74323 7.96064V8.75048C4.74323 8.86651 4.69714 8.97779 4.61509 9.05984C4.53305 9.14188 4.42177 9.18798 4.30573 9.18798C4.1897 9.18798 4.07842 9.14188 3.99637 9.05984C3.91433 8.97779 3.86823 8.86651 3.86823 8.75048V7.96064C3.46688 7.8464 3.12557 7.5808 2.91623 7.21981C2.88745 7.17006 2.86875 7.11513 2.86121 7.05815C2.85366 7.00117 2.85742 6.94326 2.87226 6.88774C2.88711 6.83221 2.91274 6.78015 2.94771 6.73454C2.98268 6.68892 3.0263 6.65006 3.07607 6.62131Z" fill="black"/>
</mask>
<g mask="url(#mask0_491_89967)">
<path d="M-2.33301 -1.16699H11.667V12.833H-2.33301V-1.16699Z" fill="white"/>
</g>
</svg>
