<svg width="24" height="24" viewBox="0 0 24 24" fill="none" xmlns="http://www.w3.org/2000/svg">
<path fill-rule="evenodd" clip-rule="evenodd" d="M7.25004 6.6311V5.4611C7.25018 5.04212 7.40063 4.6371 7.67405 4.31964C7.94747 4.00218 8.32571 3.79335 8.74004 3.7311L9.96004 3.5481C11.3125 3.34595 12.6876 3.34595 14.04 3.5481L15.26 3.7311C15.6744 3.79335 16.0526 4.00218 16.326 4.31964C16.5995 4.6371 16.7499 5.04212 16.75 5.4611V6.6311L18.464 6.7691C19.1017 6.82062 19.7038 7.08447 20.1738 7.51846C20.6439 7.95246 20.9549 8.53153 21.057 9.1631C21.5228 12.0357 21.5228 14.9645 21.057 17.8371C20.9549 18.4687 20.6439 19.0477 20.1738 19.4817C19.7038 19.9157 19.1017 20.1796 18.464 20.2311L16.592 20.3811C13.5357 20.6281 10.4644 20.6281 7.40804 20.3811L5.53604 20.2311C4.89834 20.1796 4.29633 19.9157 3.82626 19.4817C3.35619 19.0477 3.04521 18.4687 2.94304 17.8371C2.47732 14.9645 2.47732 12.0357 2.94304 9.1631C3.04541 8.53171 3.35648 7.95287 3.82653 7.51907C4.29658 7.08527 4.89848 6.82157 5.53604 6.7701L7.25004 6.6311ZM10.183 5.0311C11.3877 4.85117 12.6124 4.85117 13.817 5.0311L15.037 5.2141C15.0962 5.22296 15.1503 5.25276 15.1894 5.29808C15.2285 5.34341 15.25 5.40125 15.25 5.4611V6.5261C13.0851 6.40246 10.9149 6.40246 8.75004 6.5261V5.4601C8.7501 5.40025 8.77163 5.34241 8.81071 5.29708C8.8498 5.25176 8.90385 5.22196 8.96304 5.2131L10.183 5.0311ZM7.52904 8.1131C10.505 7.8731 13.495 7.8731 16.471 8.1131L18.343 8.2651C18.6464 8.28937 18.9328 8.41469 19.1566 8.621C19.3803 8.82731 19.5283 9.1027 19.577 9.4031C19.639 9.78777 19.6924 10.1738 19.737 10.5611C17.3299 11.7459 14.6829 12.362 12 12.362C9.31717 12.362 6.67013 11.7459 4.26304 10.5611C4.30704 10.1744 4.36037 9.78843 4.42304 9.4031C4.47175 9.1027 4.6198 8.82731 4.84352 8.621C5.06724 8.41469 5.35369 8.28937 5.65704 8.2651L7.52904 8.1131ZM4.12904 12.1571C6.60092 13.2808 9.28475 13.8621 12 13.8621C14.7153 13.8621 17.3992 13.2808 19.871 12.1571C19.9668 13.9757 19.8683 15.7994 19.577 17.5971C19.5285 17.8977 19.3806 18.1733 19.1568 18.3798C18.9331 18.5863 18.6465 18.7118 18.343 18.7361L16.471 18.8861C13.495 19.1261 10.505 19.1261 7.52904 18.8861L5.65704 18.7361C5.35354 18.7118 5.06698 18.5863 4.84325 18.3798C4.61951 18.1733 4.47154 17.8977 4.42304 17.5971C4.13204 15.7971 4.03304 13.9731 4.12904 12.1571Z" fill="white"/>
</svg>
