<svg width="24" height="24" viewBox="0 0 24 24" fill="none" xmlns="http://www.w3.org/2000/svg">
<path d="M12.0002 1.2002C9.86416 1.2002 7.77609 1.8336 6.00004 3.02032C4.22399 4.20704 2.83973 5.89377 2.0223 7.86721C1.20487 9.84066 0.990999 12.0122 1.40772 14.1072C1.82444 16.2022 2.85304 18.1265 4.36345 19.6369C5.87385 21.1474 7.79823 22.176 9.89323 22.5927C11.9882 23.0094 14.1597 22.7955 16.1332 21.9781C18.1066 21.1607 19.7934 19.7764 20.9801 18.0004C22.1668 16.2243 22.8002 14.1362 22.8002 12.0002C22.7962 9.13708 21.6571 6.39236 19.6326 4.36783C17.608 2.34329 14.8633 1.20416 12.0002 1.2002ZM12.0002 21.5297C10.1156 21.5291 8.27344 20.9697 6.70671 19.9222C5.13999 18.8748 3.91903 17.3862 3.19823 15.6449C2.47742 13.9036 2.28914 11.9876 2.65717 10.1392C3.02521 8.2909 3.93304 6.59319 5.26589 5.26076C6.59873 3.92834 8.29673 3.02104 10.1452 2.65358C11.9937 2.28613 13.9096 2.47502 15.6507 3.19637C17.3918 3.91773 18.8799 5.13915 19.9269 6.7062C20.9739 8.27325 21.5327 10.1156 21.5327 12.0002C21.5299 14.5272 20.5246 16.9499 18.7374 18.7366C16.9503 20.5232 14.5272 21.5277 12.0002 21.5297ZM16.8002 6.3497L10.0232 9.7382C9.89956 9.79942 9.79943 9.89955 9.7382 10.0232L6.3497 16.7987C6.28937 16.9181 6.26829 17.0534 6.28948 17.1855C6.31068 17.3175 6.37305 17.4395 6.4677 17.534C6.56235 17.6285 6.68444 17.6906 6.81653 17.7116C6.94862 17.7326 7.08395 17.7112 7.2032 17.6507L13.9787 14.2652C14.1023 14.204 14.2025 14.1038 14.2637 13.9802L17.6552 7.2002C17.7159 7.08069 17.7372 6.94503 17.716 6.81268C17.6948 6.68033 17.6323 6.55809 17.5373 6.46348C17.4424 6.36887 17.3199 6.30676 17.1875 6.28605C17.0551 6.26534 16.9195 6.28859 16.8002 6.3497ZM13.2227 13.2182L8.3402 15.6632L10.7747 10.7807L15.6572 8.3462L13.2227 13.2182Z" fill="black"/>
</svg>
