<svg width="24" height="24" viewBox="0 0 24 24" fill="none" xmlns="http://www.w3.org/2000/svg">
<path d="M9 6H10.5V9H13.5V6H15L12 1.5L9 6ZM18.63 17.73L19.8 15L16.8 14.655L16.5 11.7L13.77 12.87L12 10.5L10.23 12.87L7.5 11.7L7.155 14.7L4.2 15L5.37 17.73L3 19.5H0V21H24V19.5H21L18.63 17.73ZM6 19.5C6.05331 17.9275 6.70115 16.4337 7.81277 15.3201C8.9244 14.2065 10.417 13.5561 11.9895 13.5C13.5639 13.5507 15.0603 14.1974 16.1761 15.3093C17.2919 16.4212 17.9438 17.9153 18 19.4895L6 19.5Z" fill="black"/>
</svg>
