<svg width="24" height="24" viewBox="0 0 24 24" fill="none" xmlns="http://www.w3.org/2000/svg">
<g clip-path="url(#clip0_491_89938)">
<path d="M6.74968 11.5H18.2503H6.74968ZM9.04981 6.83333H15.9502H9.04981ZM10.1999 16.1667H14.8001H10.1999ZM17.4085 1H7.59153C7.29404 1.00137 7.00225 1.08289 6.74602 1.23623C6.48979 1.38956 6.27832 1.6092 6.13325 1.87267L1.22478 10.6332C1.07743 10.8976 1 11.1962 1 11.5C1 11.8038 1.07743 12.1024 1.22478 12.3668L6.13325 21.1273C6.43226 21.6663 6.98889 21.9988 7.59153 22H17.4085C17.706 21.9986 17.9977 21.9171 18.254 21.7638C18.5102 21.6104 18.7217 21.3908 18.8668 21.1273L23.7752 12.3668C23.9226 12.1024 24 11.8038 24 11.5C24 11.1962 23.9226 10.8976 23.7752 10.6332L18.8668 1.87267C18.7217 1.6092 18.5102 1.38956 18.254 1.23623C17.9977 1.08289 17.706 1.00137 17.4085 1Z" fill="black"/>
<path d="M6.74968 11.5H18.2503M9.04981 6.83333H15.9502M10.1999 16.1667H14.8001M17.4085 1H7.59153C7.29404 1.00137 7.00225 1.08289 6.74602 1.23623C6.48979 1.38956 6.27832 1.6092 6.13325 1.87267L1.22478 10.6332C1.07743 10.8976 1 11.1962 1 11.5C1 11.8038 1.07743 12.1024 1.22478 12.3668L6.13325 21.1273C6.43226 21.6663 6.98889 21.9988 7.59153 22H17.4085C17.706 21.9986 17.9977 21.9171 18.254 21.7638C18.5102 21.6104 18.7217 21.3908 18.8668 21.1273L23.7752 12.3668C23.9226 12.1024 24 11.8038 24 11.5C24 11.1962 23.9226 10.8976 23.7752 10.6332L18.8668 1.87267C18.7217 1.6092 18.5102 1.38956 18.254 1.23623C17.9977 1.08289 17.706 1.00137 17.4085 1Z" stroke="white" stroke-width="1.5" stroke-linecap="round" stroke-linejoin="round"/>
</g>
<defs>
<clipPath id="clip0_491_89938">
<rect width="24" height="24" fill="white"/>
</clipPath>
</defs>
</svg>
