<svg width="24" height="24" viewBox="0 0 24 24" fill="none" xmlns="http://www.w3.org/2000/svg">
<path d="M7.83301 13.167H17.167C18.5812 13.1671 19.9374 13.7286 20.9375 14.7285C21.9377 15.7287 22.5 17.0855 22.5 18.5C22.5 19.2956 22.1837 20.0585 21.6211 20.6211C21.0585 21.1837 20.2956 21.5 19.5 21.5H5.5C4.70435 21.5 3.94152 21.1837 3.37891 20.6211C2.8163 20.0585 2.5 19.2956 2.5 18.5C2.5 17.0855 3.06231 15.7287 4.0625 14.7285C5.06259 13.7286 6.41879 13.1671 7.83301 13.167ZM12.5 1.5C13.6051 1.5 14.6649 1.9393 15.4463 2.7207C16.2276 3.50209 16.667 4.562 16.667 5.66699C16.6669 6.77194 16.2276 7.83196 15.4463 8.61328C14.6649 9.39458 13.605 9.83301 12.5 9.83301C11.395 9.83301 10.3351 9.39458 9.55371 8.61328C8.77239 7.83196 8.33309 6.77194 8.33301 5.66699C8.33301 4.562 8.77241 3.50209 9.55371 2.7207C10.3351 1.9393 11.3949 1.5 12.5 1.5Z" fill="white" stroke="black"/>
</svg>
