<svg width="24" height="24" viewBox="0 0 24 24" fill="none" xmlns="http://www.w3.org/2000/svg">
<path d="M8 9C7.71667 9 7.47934 8.904 7.288 8.712C7.09667 8.52 7.00067 8.28267 7 8C6.99934 7.71733 7.09534 7.48 7.288 7.288C7.48067 7.096 7.718 7 8 7H20C20.2833 7 20.521 7.096 20.713 7.288C20.905 7.48 21.0007 7.71733 21 8C20.9993 8.28267 20.9033 8.52033 20.712 8.713C20.5207 8.90567 20.2833 9.00133 20 9H8ZM8 13C7.71667 13 7.47934 12.904 7.288 12.712C7.09667 12.52 7.00067 12.2827 7 12C6.99934 11.7173 7.09534 11.48 7.288 11.288C7.48067 11.096 7.718 11 8 11H20C20.2833 11 20.521 11.096 20.713 11.288C20.905 11.48 21.0007 11.7173 21 12C20.9993 12.2827 20.9033 12.5203 20.712 12.713C20.5207 12.9057 20.2833 13.0013 20 13H8ZM8 17C7.71667 17 7.47934 16.904 7.288 16.712C7.09667 16.52 7.00067 16.2827 7 16C6.99934 15.7173 7.09534 15.48 7.288 15.288C7.48067 15.096 7.718 15 8 15H20C20.2833 15 20.521 15.096 20.713 15.288C20.905 15.48 21.0007 15.7173 21 16C20.9993 16.2827 20.9033 16.5203 20.712 16.713C20.5207 16.9057 20.2833 17.0013 20 17H8ZM4 9C3.71667 9 3.47934 8.904 3.288 8.712C3.09667 8.52 3.00067 8.28267 3 8C2.99934 7.71733 3.09534 7.48 3.288 7.288C3.48067 7.096 3.718 7 4 7C4.282 7 4.51967 7.096 4.713 7.288C4.90634 7.48 5.002 7.71733 5 8C4.998 8.28267 4.902 8.52033 4.712 8.713C4.522 8.90567 4.28467 9.00133 4 9ZM4 13C3.71667 13 3.47934 12.904 3.288 12.712C3.09667 12.52 3.00067 12.2827 3 12C2.99934 11.7173 3.09534 11.48 3.288 11.288C3.48067 11.096 3.718 11 4 11C4.282 11 4.51967 11.096 4.713 11.288C4.90634 11.48 5.002 11.7173 5 12C4.998 12.2827 4.902 12.5203 4.712 12.713C4.522 12.9057 4.28467 13.0013 4 13ZM4 17C3.71667 17 3.47934 16.904 3.288 16.712C3.09667 16.52 3.00067 16.2827 3 16C2.99934 15.7173 3.09534 15.48 3.288 15.288C3.48067 15.096 3.718 15 4 15C4.282 15 4.51967 15.096 4.713 15.288C4.90634 15.48 5.002 15.7173 5 16C4.998 16.2827 4.902 16.5203 4.712 16.713C4.522 16.9057 4.28467 17.0013 4 17Z" fill="black"/>
</svg>
