<svg width="24" height="24" viewBox="0 0 24 24" fill="none" xmlns="http://www.w3.org/2000/svg">
<path fill-rule="evenodd" clip-rule="evenodd" d="M7.83333 5.66667C7.83333 4.42899 8.325 3.242 9.20017 2.36683C10.0753 1.49167 11.2623 1 12.5 1C13.7377 1 14.9247 1.49167 15.7998 2.36683C16.675 3.242 17.1667 4.42899 17.1667 5.66667C17.1667 6.90434 16.675 8.09133 15.7998 8.9665C14.9247 9.84167 13.7377 10.3333 12.5 10.3333C11.2623 10.3333 10.0753 9.84167 9.20017 8.9665C8.325 8.09133 7.83333 6.90434 7.83333 5.66667ZM7.83333 12.6667C6.28624 12.6667 4.80251 13.2812 3.70854 14.3752C2.61458 15.4692 2 16.9529 2 18.5C2 19.4283 2.36875 20.3185 3.02513 20.9749C3.6815 21.6313 4.57174 22 5.5 22H19.5C20.4283 22 21.3185 21.6313 21.9749 20.9749C22.6313 20.3185 23 19.4283 23 18.5C23 16.9529 22.3854 15.4692 21.2915 14.3752C20.1975 13.2812 18.7138 12.6667 17.1667 12.6667H7.83333Z" fill="black"/>
</svg>
