<svg width="24" height="24" viewBox="0 0 24 24" fill="none" xmlns="http://www.w3.org/2000/svg">
<path d="M19.3934 22H19.1294C16.1546 21.6789 13.2965 20.6685 10.784 19.0497C8.44978 17.5679 6.46765 15.5973 4.97548 13.275C3.34713 10.7654 2.33271 7.91011 2.01383 4.93882C1.97727 4.58444 2.01337 4.22636 2.11992 3.8863C2.22648 3.54624 2.40128 3.23129 2.63371 2.96055C2.85978 2.68619 3.13882 2.45981 3.45431 2.29481C3.7698 2.12982 4.11531 2.02957 4.47039 2H7.455C8.10142 2.00065 8.72629 2.23152 9.21679 2.65093C9.70728 3.07034 10.0311 3.65063 10.1297 4.28702C10.2388 5.10447 10.4429 5.90651 10.7381 6.67696C10.9177 7.1611 10.9547 7.68626 10.8449 8.19067C10.7351 8.69508 10.483 9.15776 10.1182 9.5243L9.41796 10.2218C10.5204 11.9556 11.9993 13.421 13.7456 14.51L14.4459 13.8239C14.8138 13.4605 15.2783 13.2094 15.7847 13.1C16.291 12.9906 16.8182 13.0275 17.3042 13.2064C18.0786 13.4975 18.8833 13.7008 19.7034 13.8125C20.3531 13.9098 20.9449 14.2399 21.3676 14.741C21.7903 15.2421 22.0149 15.8797 21.9992 16.534V19.2784C21.9992 19.9922 21.7154 20.6769 21.2098 21.1827C20.7042 21.6884 20.0181 21.9741 19.3016 21.9771L19.3934 22ZM7.455 3.70383H4.71146C4.57675 3.7127 4.44524 3.74869 4.32489 3.80962C4.20453 3.87055 4.09783 3.95515 4.01122 4.05832C3.92693 4.15496 3.86314 4.26759 3.82369 4.38943C3.78423 4.51127 3.76993 4.6398 3.78164 4.7673C4.06125 7.46202 4.96931 10.0543 6.43335 12.3373C7.78404 14.449 9.58248 16.2406 11.7023 17.586C13.995 19.061 16.6005 19.9848 19.3131 20.2847C19.4541 20.292 19.5951 20.2703 19.7274 20.2212C19.8596 20.172 19.9804 20.0963 20.0822 19.9989C20.265 19.8122 20.3679 19.5621 20.3692 19.3013V16.5683C20.3743 16.3277 20.2907 16.0935 20.1342 15.9101C19.9776 15.7268 19.759 15.607 19.5197 15.5735C18.5713 15.4466 17.6398 15.2166 16.7417 14.8874C16.5648 14.8215 16.3727 14.8069 16.1878 14.8454C16.0029 14.8838 15.8328 14.9737 15.6971 15.1046L14.5492 16.2481C14.4147 16.3787 14.2416 16.4626 14.0555 16.4873C13.8693 16.5121 13.6802 16.4763 13.5161 16.3854C11.0666 15.0065 9.0391 12.9908 7.65015 10.5535C7.55508 10.391 7.51701 10.2017 7.54195 10.0154C7.5669 9.829 7.65343 9.65622 7.7879 9.5243L8.93583 8.38079C9.06747 8.24817 9.15803 8.08062 9.19671 7.89814C9.23538 7.71565 9.22053 7.52594 9.15393 7.35163C8.82258 6.45733 8.59159 5.52925 8.46518 4.58433C8.4367 4.33878 8.31747 4.11259 8.13073 3.94982C7.94399 3.78705 7.7031 3.69936 7.455 3.70383Z" fill="black"/>
</svg>
