<svg width="14" height="9" viewBox="0 0 14 9" fill="none" xmlns="http://www.w3.org/2000/svg">
<path d="M12.9845 3.89922C12.2609 2.78031 11.3222 1.82984 10.27 1.15035C9.10601 0.397852 7.82086 0 6.55375 0C5.39109 0 4.24785 0.332227 3.15574 0.987383C2.04203 1.65539 1.03305 2.63129 0.156678 3.88773C0.0577443 4.02973 0.00325755 4.19794 0.00014154 4.37097C-0.00297447 4.54401 0.045421 4.71406 0.139178 4.85953C0.861327 5.98965 1.79074 6.94148 2.82652 7.61168C3.99273 8.36719 5.24781 8.75 6.55375 8.75C7.83098 8.75 9.11887 8.35543 10.278 7.60922C11.3296 6.93191 12.2664 5.97789 12.9872 4.84969C13.0777 4.7076 13.1256 4.54253 13.1251 4.37405C13.1246 4.20558 13.0758 4.04078 12.9845 3.89922ZM6.56305 7C6.04387 7 5.53635 6.84605 5.10467 6.55761C4.67299 6.26917 4.33654 5.8592 4.13786 5.37954C3.93918 4.89989 3.8872 4.37209 3.98848 3.86289C4.08977 3.35369 4.33978 2.88596 4.70689 2.51884C5.074 2.15173 5.54173 1.90173 6.05093 1.80044C6.56013 1.69915 7.08793 1.75114 7.56759 1.94982C8.04725 2.1485 8.45721 2.48495 8.74565 2.91663C9.03409 3.34831 9.18805 3.85582 9.18805 4.375C9.18725 5.07095 8.91043 5.73817 8.41832 6.23028C7.92621 6.72239 7.25899 6.9992 6.56305 7Z" fill="white"/>
</svg>
