<svg width="12" height="11" viewBox="0 0 12 11" fill="none" xmlns="http://www.w3.org/2000/svg">
<path d="M4.08333 4.66667C4.54482 4.66667 4.99595 4.52982 5.37966 4.27343C5.76338 4.01704 6.06245 3.65262 6.23905 3.22626C6.41566 2.7999 6.46186 2.33075 6.37183 1.87812C6.2818 1.4255 6.05957 1.00974 5.73325 0.683418C5.40693 0.357096 4.99117 0.134868 4.53854 0.0448354C4.08592 -0.0451968 3.61677 0.00101099 3.19041 0.177615C2.76404 0.35422 2.39963 0.653289 2.14324 1.037C1.88685 1.42072 1.75 1.87184 1.75 2.33333C1.75 2.95217 1.99583 3.54567 2.43342 3.98325C2.871 4.42084 3.4645 4.66667 4.08333 4.66667ZM8.75 5.83333C9.09612 5.83333 9.43446 5.7307 9.72225 5.53841C10.01 5.34611 10.2343 5.0728 10.3668 4.75303C10.4992 4.43326 10.5339 4.08139 10.4664 3.74193C10.3989 3.40246 10.2322 3.09064 9.98744 2.8459C9.7427 2.60116 9.43088 2.43448 9.09141 2.36696C8.75194 2.29944 8.40007 2.33409 8.0803 2.46655C7.76053 2.599 7.48722 2.8233 7.29493 3.11109C7.10264 3.39887 7 3.73722 7 4.08333C7 4.54746 7.18437 4.99258 7.51256 5.32077C7.84075 5.64896 8.28587 5.83333 8.75 5.83333ZM11.0833 9.91667C11.238 9.91667 11.3864 9.85521 11.4958 9.74581C11.6052 9.63642 11.6667 9.48804 11.6667 9.33333C11.6662 8.78815 11.5129 8.25401 11.2243 7.79151C10.9356 7.32902 10.5231 6.95669 10.0335 6.71677C9.54398 6.47685 8.99698 6.37895 8.4546 6.43417C7.91221 6.48938 7.39616 6.69551 6.965 7.02917C6.39363 6.46004 5.66653 6.07285 4.8754 5.91642C4.08426 5.75998 3.26452 5.84132 2.51955 6.15016C1.77458 6.45901 1.13774 6.98153 0.689349 7.65184C0.240957 8.32214 0.00109095 9.11022 0 9.91667C0 10.0714 0.0614581 10.2198 0.170854 10.3291C0.280251 10.4385 0.428624 10.5 0.583333 10.5H7.58333C7.73804 10.5 7.88642 10.4385 7.99581 10.3291C8.10521 10.2198 8.16667 10.0714 8.16667 9.91667" fill="white"/>
</svg>
